# xmcd CD database file
#
# Track frame offsets:
#	150
#	27245
#	55825
#	94349
#	122115
#	146042
#
# Disc length: 2413 seconds
#
# Revision: 0
# Processed by: cddbd v1.5.2PL0 Copyright (c) Steve Scherf et al.
# Submitted via: CDex 1.70beta2
#
DISCID=52096b06
DTITLE=Robert Balcar Trio - Reflex: Overnight and Bonus Track
DYEAR=2008
DGENRE=Jazz
TTITLE0=Always
TTITLE1=Ben-In-Jam
TTITLE2=Latendresse
TTITLE3=Lady Behind The Window
TTITLE4=Black Cat White Dog
TTITLE5=Night
EXTD=YEAR: 2008
EXTT0=
EXTT1=
EXTT2=
EXTT3=
EXTT4=
EXTT5=
PLAYORDER=
